<svg
  xmlns="http://www.w3.org/2000/svg"
  viewBox="0 0 16 16"
  fill="currentColor"
  fill-rule="evenodd"
  aria-hidden="true"
>
  <path
    d="M1.5 3A1.5 1.5 0 0 0 0 4.5V6a.5.5 0 0 0 .5.5 1.5 1.5 0 1 1 0 3 .5.5 0 0 0-.5.5v1.5A1.5 1.5 0 0 0 1.5 13h13a1.5 1.5 0 0 0 1.5-1.5V10a.5.5 0 0 0-.5-.5 1.5 1.5 0 0 1 0-3A.5.5 0 0 0 16 6V4.5A1.5 1.5 0 0 0 14.5 3zM1 4.5a.5.5 0 0 1 .5-.5h13a.5.5 0 0 1 .5.5v1.05a2.5 2.5 0 0 0 0 4.9v1.05a.5.5 0 0 1-.5.5h-13a.5.5 0 0 1-.5-.5v-1.05a2.5 2.5 0 0 0 0-4.9V4.5Z"
  />
  <g fill="currentColor" stroke="none" fill-rule="nonzero">
    <!-- Dashed line: 3 vertical pills, full height of inner window (x=7.5 → center 8) -->
    <rect x="7.5" y="3.0" width="1" height="2.9" rx="0.45" />
    <rect x="7.5" y="6.05" width="1" height="2.9" rx="0.45" />
    <rect x="7.5" y="9.1" width="1" height="2.9" rx="0.45" />
  </g>
</svg>
